<svg xmlns="http://www.w3.org/2000/svg" version="1.1" xmlns:xlink="http://www.w3.org/1999/xlink" width="512px" height="512px"><svg width="512px" height="512px" version="1.1" xmlns="http://www.w3.org/2000/svg" xmlns:xlink="http://www.w3.org/1999/xlink" xml:space="preserve" xmlns:serif="http://www.serif.com/" style="fill-rule:evenodd;clip-rule:evenodd;stroke-linejoin:round;stroke-miterlimit:2;">
    <circle cx="256" cy="256" r="256" style="fill:rgb(40,44,52);"></circle>
    <g transform="matrix(7.68673,0,0,7.68673,-1817.3,-1224.85)">
        <g transform="matrix(12,0,0,12,245.293,195.986)">
            <path d="M0.386,0.012C0.331,0.012 0.288,0.003 0.255,-0.016C0.222,-0.035 0.199,-0.061 0.184,-0.095C0.169,-0.128 0.162,-0.167 0.162,-0.212L0.162,-0.366L0.042,-0.366L0.042,-0.494L0.17,-0.5L0.192,-0.65L0.334,-0.65L0.334,-0.5L0.532,-0.5L0.532,-0.366L0.334,-0.366L0.334,-0.215C0.334,-0.192 0.338,-0.173 0.345,-0.16C0.352,-0.146 0.363,-0.136 0.378,-0.131C0.392,-0.125 0.41,-0.122 0.431,-0.122C0.448,-0.122 0.464,-0.124 0.48,-0.127C0.495,-0.13 0.509,-0.133 0.522,-0.138L0.552,-0.014C0.53,-0.008 0.505,-0.002 0.478,0.004C0.451,0.009 0.42,0.012 0.386,0.012Z" style="fill:rgb(220,223,228);fill-rule:nonzero;"></path>
        </g>
        <g transform="matrix(12,0,0,12,252.493,195.986)">
            <path d="M0.377,0.18C0.314,0.121 0.263,0.053 0.226,-0.024C0.189,-0.101 0.17,-0.185 0.17,-0.278C0.17,-0.371 0.189,-0.456 0.226,-0.533C0.263,-0.61 0.314,-0.677 0.377,-0.736L0.472,-0.662C0.415,-0.603 0.375,-0.544 0.35,-0.484C0.325,-0.424 0.312,-0.355 0.312,-0.278C0.312,-0.201 0.325,-0.133 0.35,-0.073C0.375,-0.012 0.415,0.047 0.472,0.106L0.377,0.18Z" style="fill:rgb(152,195,121);fill-rule:nonzero;"></path>
        </g>
        <g transform="matrix(12,0,0,12,259.693,195.986)">
            <path d="M0.084,-0L0.084,-0.65L0.526,-0.65L0.526,-0.506L0.256,-0.506L0.256,-0.404L0.486,-0.404L0.486,-0.26L0.256,-0.26L0.256,-0.144L0.536,-0.144L0.536,-0L0.084,-0Z" style="fill:rgb(97,175,239);fill-rule:nonzero;"></path>
        </g>
        <g transform="matrix(12,0,0,12,266.893,195.986)">
            <path d="M0.214,-0L0.214,-0.506L0.027,-0.506L0.027,-0.65L0.573,-0.65L0.573,-0.506L0.386,-0.506L0.386,-0L0.214,-0Z" style="fill:rgb(97,175,239);fill-rule:nonzero;"></path>
        </g>
        <g transform="matrix(12,0,0,12,274.093,195.986)">
            <path d="M0.058,-0L0.058,-0.65L0.23,-0.65L0.23,-0.408L0.37,-0.408L0.37,-0.65L0.542,-0.65L0.542,-0L0.37,-0L0.37,-0.258L0.23,-0.258L0.23,-0L0.058,-0Z" style="fill:rgb(97,175,239);fill-rule:nonzero;"></path>
        </g>
        <g transform="matrix(12,0,0,12,281.293,195.986)">
            <path d="M0.053,-0L0.053,-0.104L0.334,-0.506L0.08,-0.506L0.08,-0.65L0.547,-0.65L0.547,-0.546L0.266,-0.144L0.55,-0.144L0.55,-0L0.053,-0Z" style="fill:rgb(97,175,239);fill-rule:nonzero;"></path>
        </g>
        <g transform="matrix(12,0,0,12,288.493,195.986)">
            <path d="M0.223,0.18L0.128,0.106C0.185,0.047 0.226,-0.012 0.251,-0.073C0.276,-0.133 0.288,-0.201 0.288,-0.278C0.288,-0.355 0.276,-0.424 0.251,-0.484C0.226,-0.544 0.185,-0.603 0.128,-0.662L0.223,-0.736C0.286,-0.677 0.337,-0.61 0.374,-0.533C0.411,-0.456 0.43,-0.371 0.43,-0.278C0.43,-0.185 0.411,-0.101 0.374,-0.024C0.337,0.053 0.286,0.121 0.223,0.18Z" style="fill:rgb(152,195,121);fill-rule:nonzero;"></path>
        </g>
    </g>
</svg><style>@media (prefers-color-scheme: light) { :root { filter: none; } }
@media (prefers-color-scheme: dark) { :root { filter: none; } }
</style></svg>